<?xml version="1.0" standalone="no"?>
<!DOCTYPE svg PUBLIC "-//W3C//DTD SVG 20010904//EN"
 "http://www.w3.org/TR/2001/REC-SVG-20010904/DTD/svg10.dtd">
<svg version="1.0" xmlns="http://www.w3.org/2000/svg"
 width="2000.000000pt" height="2000.000000pt" viewBox="0 0 2000.000000 2000.000000"
 preserveAspectRatio="xMidYMid meet">

<g transform="translate(0.000000,2000.000000) scale(0.100000,-0.100000)"
fill="#000000" stroke="none">
<path d="M4840 10953 c-8 -3 -26 -15 -38 -27 -80 -72 -66 -194 28 -243 52 -28
91 -29 147 -3 55 25 83 70 83 135 0 62 -28 111 -75 131 -34 14 -115 18 -145 7z"/>
<path d="M9090 10953 c-8 -3 -26 -15 -38 -27 -80 -72 -66 -194 28 -243 52 -28
91 -29 147 -3 55 24 83 70 83 134 0 60 -27 108 -74 130 -33 15 -115 20 -146 9z"/>
<path d="M6710 10678 l0 -212 -41 41 c-63 64 -119 87 -214 87 -104 1 -166 -26
-234 -100 -72 -79 -102 -161 -108 -299 -10 -213 56 -361 193 -430 52 -26 69
-30 144 -30 101 0 156 21 218 83 42 42 52 40 52 -13 0 -54 2 -55 146 -55 l134
0 -2 568 -3 567 -142 3 -143 3 0 -213z m-54 -341 c40 -43 54 -91 54 -182 -1
-143 -82 -230 -189 -203 -82 21 -129 118 -118 244 6 76 32 131 78 162 28 20
43 23 88 19 47 -3 59 -9 87 -40z"/>
<path d="M5626 10583 c-29 -10 -70 -36 -101 -65 l-53 -49 -9 53 -8 53 -133 3
-132 3 0 -416 0 -415 140 0 140 0 0 208 c1 114 5 238 10 277 8 62 13 74 44
102 57 52 134 43 172 -20 17 -29 19 -57 22 -299 l4 -268 139 0 139 0 0 310 c0
285 -2 315 -20 367 -49 139 -202 206 -354 156z"/>
<path d="M7408 10581 c-88 -24 -147 -60 -202 -123 -71 -81 -91 -147 -91 -298
0 -120 1 -128 32 -192 37 -79 109 -156 179 -191 100 -50 260 -59 381 -22 107
32 205 120 238 214 l14 41 -144 0 c-130 0 -144 -2 -149 -18 -8 -25 -77 -62
-115 -62 -41 0 -91 21 -118 51 -23 26 -48 103 -38 120 4 6 109 9 288 9 l281
-1 -2 63 c-6 196 -94 337 -245 393 -97 36 -216 42 -309 16z m203 -198 c27 -16
69 -84 69 -111 0 -9 -39 -12 -141 -12 l-141 0 6 30 c7 37 32 73 66 94 33 21
105 20 141 -1z"/>
<path d="M8415 10594 c-116 -25 -169 -49 -232 -107 -169 -156 -175 -473 -12
-636 155 -155 461 -163 617 -17 54 51 88 111 101 180 l8 46 -136 0 -137 0 -18
-41 c-36 -82 -146 -98 -208 -32 -38 41 -46 63 -54 134 -9 92 10 172 50 217 28
30 40 36 88 40 50 4 58 2 90 -27 20 -17 39 -42 42 -56 l6 -25 139 0 139 0 -12
53 c-33 138 -120 222 -273 261 -56 15 -151 19 -198 10z"/>
<path d="M9660 10585 c-108 -30 -164 -69 -208 -144 -21 -35 -25 -56 -26 -115
0 -139 78 -212 271 -251 188 -38 225 -61 185 -114 -16 -22 -28 -26 -79 -29
-53 -3 -64 0 -92 23 -17 15 -31 33 -31 41 0 11 -26 14 -141 14 l-141 0 5 -27
c32 -159 180 -253 397 -252 230 0 380 114 380 287 0 133 -81 195 -312 242
-161 33 -199 61 -157 114 38 49 137 39 174 -18 17 -26 19 -26 142 -26 l125 0
-7 38 c-16 90 -88 167 -189 203 -81 28 -221 34 -296 14z"/>
<path d="M10604 10590 c-117 -25 -230 -100 -281 -187 -76 -130 -83 -314 -16
-447 88 -175 298 -261 511 -211 110 26 191 82 247 169 148 234 56 555 -185
649 -80 31 -203 43 -276 27z m187 -246 c54 -52 74 -178 44 -280 -32 -108 -131
-149 -220 -90 -70 46 -92 223 -41 324 32 64 68 84 139 79 36 -3 55 -11 78 -33z"/>
<path d="M11470 10584 c-138 -37 -209 -102 -230 -213 -16 -85 2 -146 61 -203
51 -50 112 -74 293 -113 108 -24 139 -57 96 -103 -17 -18 -32 -22 -80 -22 -48
0 -64 4 -89 26 -17 14 -31 32 -31 40 0 11 -26 14 -141 14 l-141 0 7 -32 c10
-48 55 -126 88 -154 148 -124 471 -124 605 -1 75 69 104 204 63 290 -38 77
-98 106 -332 157 -99 21 -129 39 -129 77 0 35 36 57 92 57 47 0 54 -3 83 -37
l32 -37 122 0 c119 0 121 0 121 23 0 40 -47 122 -91 160 -87 75 -265 107 -399
71z"/>
<path d="M12845 10572 c-120 -41 -196 -109 -249 -221 -29 -63 -31 -72 -31
-186 1 -134 17 -192 78 -269 85 -109 194 -158 352 -158 140 0 221 29 308 110
81 77 127 189 127 314 0 186 -94 334 -256 400 -60 24 -82 27 -174 27 -74 0
-120 -5 -155 -17z m251 -237 c71 -81 73 -254 3 -339 -64 -77 -174 -67 -226 21
-31 54 -43 170 -23 241 33 124 169 166 246 77z"/>
<path d="M13951 10579 c-34 -13 -83 -57 -105 -93 -18 -29 -19 -30 -27 -11 -4
11 -8 39 -8 63 l-1 42 -135 0 -135 0 0 -415 0 -415 140 0 140 0 0 198 c0 231
9 278 67 335 40 41 84 57 156 57 l47 0 0 125 0 125 -57 -1 c-32 0 -69 -5 -82
-10z"/>
<path d="M14354 10561 c-118 -56 -182 -170 -192 -343 -4 -74 -1 -98 22 -168
38 -119 81 -172 175 -217 130 -62 297 -29 361 72 l20 30 0 -95 c0 -113 -17
-156 -70 -182 -72 -37 -175 -12 -202 47 -11 25 -12 25 -145 25 l-133 0 0 -24
c0 -85 112 -204 223 -237 111 -33 286 -28 392 12 73 27 156 103 184 169 34 79
41 180 41 568 l-1 362 -134 0 -135 0 -1 -32 c-1 -18 -4 -44 -8 -57 -6 -24 -7
-24 -33 11 -15 20 -51 47 -83 62 -46 21 -70 26 -138 26 -70 0 -91 -4 -143 -29z
m311 -184 c79 -44 112 -173 72 -279 -35 -91 -111 -126 -195 -92 -135 56 -133
321 3 380 43 19 74 17 120 -9z"/>
<path d="M4760 10165 l0 -415 145 0 145 0 0 415 0 415 -145 0 -145 0 0 -415z"/>
<path d="M9010 10165 l0 -415 145 0 145 0 0 415 0 415 -145 0 -145 0 0 -415z"/>
<path d="M12203 9990 c-86 -52 -82 -189 6 -235 45 -23 112 -19 152 8 41 28 59
60 59 110 0 80 -58 137 -140 137 -27 0 -58 -8 -77 -20z"/>
</g>
</svg>
